<svg width="80" height="73" viewBox="0 0 80 73" fill="none" xmlns="http://www.w3.org/2000/svg">
<path d="M49.6121 7.41737C51.6092 5.09078 54.6022 3.73427 57.7383 3.73427H60.5648C68.9451 3.73427 73.6068 12.7234 68.5602 19.1516L30.0211 68.241C28.0366 70.7688 24.9098 72.2657 21.6144 72.2657H15.1892C6.60014 72.2657 2.00467 62.8788 7.4743 56.5068L49.6121 7.41737Z" fill="black"/>
<path d="M61.1067 39.6811C63.1016 37.2963 66.1338 35.8996 69.3163 35.8995H69.6481C78.0759 35.8995 82.7236 44.9788 77.5808 51.396L63.9651 68.3854C61.9764 70.8668 58.88 72.331 55.6212 72.331H54.6937C46.1658 72.331 41.5497 63.0611 46.8953 56.6706L61.1067 39.6811Z" fill="black"/>
<path d="M17.3111 4.70555C19.306 2.32069 22.3382 0.923959 25.5207 0.923951L25.8525 0.92395C34.2803 0.923929 38.9281 10.0033 33.7852 16.4204L20.1695 33.4098C18.1809 35.8912 15.0845 37.3554 11.8256 37.3554H10.8981C2.37027 37.3554 -2.24586 28.0855 3.09972 21.695L17.3111 4.70555Z" fill="black"/>
</svg>
